<mxfile host="Electron" agent="Mozilla/5.0 (Windows NT 10.0; Win64; x64) AppleWebKit/537.36 (KHTML, like Gecko) draw.io/27.0.9 Chrome/134.0.6998.205 Electron/35.4.0 Safari/537.36" version="27.0.9">
  <diagram id="IjTwH-Po86_Vqoa0VxKK" name="Page-1">
    <mxGraphModel dx="2357" dy="2065" grid="1" gridSize="10" guides="1" tooltips="1" connect="1" arrows="1" fold="1" page="1" pageScale="1" pageWidth="827" pageHeight="1169" background="none" math="0" shadow="0">
      <root>
        <mxCell id="0" />
        <mxCell id="1" parent="0" />
        <mxCell id="Y7qKBM2O2GGH0q0RzG9P-3" value="&lt;font&gt;it.unibas.softwarefirewall.firewallapi&lt;/font&gt;" style="shape=folder;fontStyle=1;tabWidth=190;tabHeight=30;tabPosition=left;html=1;boundedLbl=1;labelInHeader=1;container=1;collapsible=0;recursiveResize=0;whiteSpace=wrap;rounded=1;shadow=0;fillColor=#ffe6cc;strokeColor=#d79b00;fontFamily=Jetbrains Mono;fontSize=6;" parent="1" vertex="1">
          <mxGeometry x="-780" y="-800" width="740" height="240" as="geometry" />
        </mxCell>
        <mxCell id="zuTtKcM1ff-oa4k9CTwb-6" value="" style="group" parent="Y7qKBM2O2GGH0q0RzG9P-3" vertex="1" connectable="0">
          <mxGeometry x="20" y="40" width="671.53" height="209.87000000000006" as="geometry" />
        </mxCell>
        <mxCell id="node12" value="&lt;p style=&quot;margin:0px;margin-top:4px;text-align:center;&quot;&gt;&lt;i&gt;&amp;lt;&amp;lt;enumeration&amp;gt;&amp;gt;&lt;/i&gt;&lt;br&gt;&lt;b&gt;EDirection&lt;/b&gt;&lt;/p&gt;&lt;hr&gt;&lt;p style=&quot;margin:0 0 0 4px;line-height:1.6;&quot;&gt;+ INBOUND: &lt;br&gt;+ OUTBOUND: &lt;/p&gt;&lt;hr&gt;&lt;p style=&quot;margin:0 0 0 4px;line-height:1.6;&quot;&gt;+ valueOf(String): EDirection&lt;br&gt;+ values(): EDirection[]&lt;/p&gt;" style="verticalAlign=top;align=left;overflow=fill;fontSize=4;fontFamily=Jetbrains Mono;html=1;rounded=1;shadow=0;comic=0;labelBackgroundColor=none;strokeWidth=1;strokeColor=#6c8ebf;arcSize=10;fontColor=default;fillColor=#dae8fc;" parent="zuTtKcM1ff-oa4k9CTwb-6" vertex="1">
          <mxGeometry x="580" y="40" width="90" height="50.82" as="geometry" />
        </mxCell>
        <mxCell id="node13" value="&lt;p style=&quot;margin:0px;margin-top:4px;text-align:center;&quot;&gt;&lt;i&gt;&amp;lt;&amp;lt;interface&amp;gt;&amp;gt;&lt;/i&gt;&lt;br&gt;&lt;b&gt;IRange&lt;/b&gt;&lt;/p&gt;&lt;hr&gt;&lt;p style=&quot;margin:0 0 0 4px;line-height:1.6;&quot;&gt;+ contains(T): Boolean&lt;br&gt;+ clone(): Object&lt;/p&gt;" style="verticalAlign=top;align=left;overflow=fill;fontSize=4;fontFamily=Jetbrains Mono;html=1;rounded=1;shadow=0;comic=0;labelBackgroundColor=none;strokeWidth=1;strokeColor=#6c8ebf;arcSize=10;fontColor=default;fillColor=#dae8fc;" parent="zuTtKcM1ff-oa4k9CTwb-6" vertex="1">
          <mxGeometry x="580" width="90" height="31.76" as="geometry" />
        </mxCell>
        <mxCell id="node7" value="&lt;p style=&quot;margin:0px;margin-top:4px;text-align:center;&quot;&gt;&lt;i&gt;&amp;lt;&amp;lt;interface&amp;gt;&amp;gt;&lt;/i&gt;&lt;br&gt;&lt;b&gt;IRuleSet&lt;/b&gt;&lt;/p&gt;&lt;hr&gt;&lt;p style=&quot;margin:0 0 0 4px;line-height:1.6;&quot;&gt;+ setRules(List&amp;lt;IRule&amp;gt;): void&lt;br&gt;+ loadRuleSetFromFile(): void&lt;br&gt;+ addRule(IRule): void&lt;br&gt;+ getRules(): List&amp;lt;IRule&amp;gt;&lt;br&gt;+ matches(IPacket): Boolean&lt;br&gt;+ removeRule(IRule): void&lt;br&gt;+ clone(): Object&lt;/p&gt;" style="verticalAlign=top;align=left;overflow=fill;fontSize=4;fontFamily=Jetbrains Mono;html=1;rounded=1;shadow=0;comic=0;labelBackgroundColor=none;strokeWidth=1;strokeColor=#6c8ebf;arcSize=10;fontColor=default;fillColor=#dae8fc;" parent="zuTtKcM1ff-oa4k9CTwb-6" vertex="1">
          <mxGeometry x="225.69" width="78.24" height="70" as="geometry" />
        </mxCell>
        <mxCell id="node8" value="&lt;p style=&quot;margin:0px;margin-top:4px;text-align:center;&quot;&gt;&lt;i&gt;&amp;lt;&amp;lt;interface&amp;gt;&amp;gt;&lt;/i&gt;&lt;br&gt;&lt;b&gt;IRule&lt;/b&gt;&lt;/p&gt;&lt;hr&gt;&lt;p style=&quot;margin:0 0 0 4px;line-height:1.6;&quot;&gt;+ setDestinationIPRange(IRange&amp;lt;String&amp;gt;): void&lt;br&gt;+ getDestinationPortRange(): IRange&amp;lt;Integer&amp;gt;&lt;br&gt;+ setDirection(EDirection): void&lt;br&gt;+ clone(): Object&lt;br&gt;+ getDestinationIPRange(): IRange&amp;lt;String&amp;gt;&lt;br&gt;+ setDescription(String): void&lt;br&gt;+ setDestinationPortRange(IRange&amp;lt;Integer&amp;gt;): void&lt;br&gt;+ getDirection(): EDirection&lt;br&gt;+ setSourceIPRange(IRange&amp;lt;String&amp;gt;): void&lt;br&gt;+ setProtocol(EProtocol): void&lt;br&gt;+ getSourcePortRange(): IRange&amp;lt;Integer&amp;gt;&lt;br&gt;+ getDescription(): String&lt;br&gt;+ getID(): String&lt;br&gt;+ getSourceIPRange(): IRange&amp;lt;String&amp;gt;&lt;br&gt;+ getProtocol(): EProtocol&lt;br&gt;+ matches(IPacket): Boolean&lt;br&gt;+ setSourcePortRange(IRange&amp;lt;Integer&amp;gt;): void&lt;/p&gt;" style="verticalAlign=top;align=left;overflow=fill;fontSize=4;fontFamily=Jetbrains Mono;html=1;rounded=1;shadow=0;comic=0;labelBackgroundColor=none;strokeWidth=1;strokeColor=#6c8ebf;arcSize=10;fontColor=default;fillColor=#dae8fc;" parent="zuTtKcM1ff-oa4k9CTwb-6" vertex="1">
          <mxGeometry x="328.01" width="126.69" height="130" as="geometry" />
        </mxCell>
        <mxCell id="node1" value="&lt;p style=&quot;margin:0px;margin-top:4px;text-align:center;&quot;&gt;&lt;i&gt;&amp;lt;&amp;lt;interface&amp;gt;&amp;gt;&lt;/i&gt;&lt;br&gt;&lt;b&gt;IFirewallFacade&lt;/b&gt;&lt;/p&gt;&lt;hr&gt;&lt;p style=&quot;margin:0 0 0 4px;line-height:1.6;&quot;&gt;+ getClonedRuleSetUnderTestRules(): List&amp;lt;IRule&amp;gt;&lt;br&gt;+ updateClonedRuleSetUnderTest(IRule, ETypeOfOperation, Optional&amp;lt;IRule&amp;gt;): void&lt;br&gt;+ getClonedRuleSetUnderTest(): IRuleSet&lt;br&gt;+ getActiveRuleSet(): IRuleSet&lt;br&gt;+ clonedRuleSetUnderTestContainsRule(IRule): Boolean&lt;br&gt;+ getActiveRuleSetRules(): List&amp;lt;IRule&amp;gt;&lt;br&gt;+ activeRuleSetContainsRule(IRule): Boolean&lt;br&gt;+ updateActiveRuleSet(IRule, ETypeOfOperation, Optional&amp;lt;IRule&amp;gt;): void&lt;br&gt;+ clonedRuleSetUnderTestProcessPacket(IPacket): Boolean&lt;br&gt;+ activeRuleSetProcessPacket(IPacket): Boolean&lt;/p&gt;" style="verticalAlign=top;align=left;overflow=fill;fontSize=4;fontFamily=Jetbrains Mono;html=1;rounded=1;shadow=0;comic=0;labelBackgroundColor=none;strokeWidth=1;fillColor=#dae8fc;strokeColor=#6c8ebf;arcSize=10;" parent="zuTtKcM1ff-oa4k9CTwb-6" vertex="1">
          <mxGeometry width="201.62" height="90" as="geometry" />
        </mxCell>
        <mxCell id="node9" value="&lt;p style=&quot;margin:0px;margin-top:4px;text-align:center;&quot;&gt;&lt;i&gt;&amp;lt;&amp;lt;interface&amp;gt;&amp;gt;&lt;/i&gt;&lt;br&gt;&lt;b&gt;ISimulationStatusListener&lt;/b&gt;&lt;/p&gt;&lt;hr&gt;&lt;p style=&quot;margin:0 0 0 4px;line-height:1.6;&quot;&gt;+ onSimulationStarted(): void&lt;br&gt;+ onSimulationFinished(): void&lt;/p&gt;" style="verticalAlign=top;align=left;overflow=fill;fontSize=4;fontFamily=Jetbrains Mono;html=1;rounded=1;shadow=0;comic=0;labelBackgroundColor=none;strokeWidth=1;strokeColor=#6c8ebf;arcSize=10;fontColor=default;fillColor=#dae8fc;" parent="zuTtKcM1ff-oa4k9CTwb-6" vertex="1">
          <mxGeometry y="95.37352941176472" width="81.25" height="34.62352941176471" as="geometry" />
        </mxCell>
        <mxCell id="5QhLUKLZfmG-UPf2fnDZ-47" value="&lt;div style=&quot;text-align: center;&quot;&gt;&lt;font face=&quot;Jetbrains Mono&quot;&gt;&lt;span style=&quot;font-size: 8px;&quot;&gt;1&lt;/span&gt;&lt;/font&gt;&lt;/div&gt;" style="text;whiteSpace=wrap;html=1;" vertex="1" parent="zuTtKcM1ff-oa4k9CTwb-6">
          <mxGeometry x="150" y="110" width="10" height="20" as="geometry" />
        </mxCell>
        <mxCell id="5QhLUKLZfmG-UPf2fnDZ-55" value="&lt;div style=&quot;text-align: center;&quot;&gt;&lt;font face=&quot;Jetbrains Mono&quot;&gt;&lt;span style=&quot;font-size: 8px;&quot;&gt;1&lt;/span&gt;&lt;/font&gt;&lt;/div&gt;" style="text;whiteSpace=wrap;html=1;" vertex="1" parent="zuTtKcM1ff-oa4k9CTwb-6">
          <mxGeometry x="530" y="166" width="10" height="20" as="geometry" />
        </mxCell>
        <mxCell id="node2" value="&lt;p style=&quot;margin:0px;margin-top:4px;text-align:center;&quot;&gt;&lt;i&gt;&amp;lt;&amp;lt;interface&amp;gt;&amp;gt;&lt;/i&gt;&lt;br&gt;&lt;b&gt;IPacketLogger&lt;/b&gt;&lt;/p&gt;&lt;hr&gt;&lt;p style=&quot;margin:0 0 0 4px;line-height:1.6;&quot;&gt;+ addPacketLoggerListener(IPacketLoggerListener): void&lt;br&gt;+ getSnapshot(): Queue&amp;lt;IPacketLogEntry&amp;gt;&lt;br&gt;+ cleanupOldEntries(): void&lt;br&gt;+ logPacket(IPacket, Boolean): void&lt;/p&gt;" style="verticalAlign=top;align=left;overflow=fill;fontSize=4;fontFamily=Jetbrains Mono;html=1;rounded=1;shadow=0;comic=0;labelBackgroundColor=none;strokeWidth=1;strokeColor=#6c8ebf;arcSize=10;fontColor=default;fillColor=#dae8fc;" parent="Y7qKBM2O2GGH0q0RzG9P-3" vertex="1">
          <mxGeometry x="20" y="177.45294117647057" width="141.4351851851852" height="47.64705882352942" as="geometry" />
        </mxCell>
        <mxCell id="node6" value="&lt;p style=&quot;margin:0px;margin-top:4px;text-align:center;&quot;&gt;&lt;i&gt;&amp;lt;&amp;lt;interface&amp;gt;&amp;gt;&lt;/i&gt;&lt;br&gt;&lt;b&gt;IPacketLoggerListener&lt;/b&gt;&lt;/p&gt;&lt;hr&gt;&lt;p style=&quot;margin:0 0 0 4px;line-height:1.6;&quot;&gt;+ onNewEntry(): void&lt;/p&gt;" style="verticalAlign=top;align=left;overflow=fill;fontSize=4;fontFamily=Jetbrains Mono;html=1;rounded=1;shadow=0;comic=0;labelBackgroundColor=none;strokeWidth=1;strokeColor=#6c8ebf;arcSize=10;fontColor=default;fillColor=#dae8fc;" parent="Y7qKBM2O2GGH0q0RzG9P-3" vertex="1">
          <mxGeometry x="250.80296296296297" y="177.45294117647057" width="68.00925925925927" height="25.094117647058827" as="geometry" />
        </mxCell>
        <mxCell id="node11" value="&lt;p style=&quot;margin:0px;margin-top:4px;text-align:center;&quot;&gt;&lt;font&gt;&lt;i&gt;&amp;lt;&amp;lt;interface&amp;gt;&amp;gt;&lt;/i&gt;&lt;br&gt;&lt;b&gt;IPacketLogEntry&lt;/b&gt;&lt;/font&gt;&lt;/p&gt;&lt;hr&gt;&lt;p style=&quot;margin:0 0 0 4px;line-height:1.6;&quot;&gt;&lt;font&gt;+ getTimestamp(): Long&lt;br&gt;+ getAllowed(): Boolean&lt;br&gt;+ getPacket(): IPacket&lt;/font&gt;&lt;/p&gt;" style="verticalAlign=top;align=left;overflow=fill;fontSize=4;fontFamily=Jetbrains Mono;html=1;rounded=1;shadow=0;comic=0;labelBackgroundColor=none;strokeWidth=1;strokeColor=#6c8ebf;arcSize=10;fontColor=default;fillColor=#dae8fc;" parent="Y7qKBM2O2GGH0q0RzG9P-3" vertex="1">
          <mxGeometry x="176.4814814814815" y="177.45294117647057" width="63.19444444444444" height="47.64705882352942" as="geometry" />
        </mxCell>
        <mxCell id="node0" value="&lt;p style=&quot;margin:0px;margin-top:4px;text-align:center;&quot;&gt;&lt;i&gt;&amp;lt;&amp;lt;interface&amp;gt;&amp;gt;&lt;/i&gt;&lt;br&gt;&lt;b&gt;IPacket&lt;/b&gt;&lt;/p&gt;&lt;hr&gt;&lt;p style=&quot;margin:0 0 0 4px;line-height:1.6;&quot;&gt;+ getPayload(): String&lt;br&gt;+ toDisplayString(): String&lt;br&gt;+ getHeader(): IHeader&lt;br&gt;+ getID(): String&lt;/p&gt;" style="verticalAlign=top;align=left;overflow=fill;fontSize=4;fontFamily=Jetbrains Mono;html=1;rounded=1;shadow=0;comic=0;labelBackgroundColor=none;strokeWidth=1;strokeColor=#6c8ebf;arcSize=10;fontColor=default;fillColor=#dae8fc;" parent="Y7qKBM2O2GGH0q0RzG9P-3" vertex="1">
          <mxGeometry x="348.01" y="177.45000000000002" width="72.22" height="47.37" as="geometry" />
        </mxCell>
        <mxCell id="node3" value="&lt;p style=&quot;margin:0px;margin-top:4px;text-align:center;&quot;&gt;&lt;font&gt;&lt;i&gt;&amp;lt;&amp;lt;interface&amp;gt;&amp;gt;&lt;/i&gt;&lt;br&gt;&lt;b&gt;IHeader&lt;/b&gt;&lt;/font&gt;&lt;/p&gt;&lt;hr&gt;&lt;p style=&quot;margin:0 0 0 4px;line-height:1.6;&quot;&gt;&lt;font&gt;+ getDestinationIP(): String&lt;br&gt;+ getSourcePort(): Integer&lt;br&gt;+ getSourceIP(): String&lt;br&gt;+ getDestinationPort(): Integer&lt;br&gt;+ getProtocol(): EProtocol&lt;/font&gt;&lt;/p&gt;" style="verticalAlign=top;align=left;overflow=fill;fontSize=4;fontFamily=Jetbrains Mono;html=1;rounded=1;shadow=0;comic=0;labelBackgroundColor=none;strokeWidth=1;strokeColor=#6c8ebf;arcSize=10;fontColor=default;fillColor=#dae8fc;" parent="Y7qKBM2O2GGH0q0RzG9P-3" vertex="1">
          <mxGeometry x="430" y="177.45" width="100" height="52.55" as="geometry" />
        </mxCell>
        <mxCell id="5QhLUKLZfmG-UPf2fnDZ-26" value="&lt;div style=&quot;text-align: center;&quot;&gt;&lt;span style=&quot;background-color: transparent; color: light-dark(rgb(0, 0, 0), rgb(255, 255, 255)); font-size: 8px;&quot;&gt;&lt;font face=&quot;Jetbrains Mono&quot;&gt;2&lt;/font&gt;&lt;/span&gt;&lt;/div&gt;" style="text;whiteSpace=wrap;html=1;" vertex="1" parent="Y7qKBM2O2GGH0q0RzG9P-3">
          <mxGeometry x="270" y="20" width="10" height="20" as="geometry" />
        </mxCell>
        <mxCell id="5QhLUKLZfmG-UPf2fnDZ-43" value="&lt;div style=&quot;text-align: center;&quot;&gt;&lt;font face=&quot;Jetbrains Mono&quot;&gt;&lt;span style=&quot;font-size: 8px;&quot;&gt;n&lt;/span&gt;&lt;/font&gt;&lt;/div&gt;" style="text;whiteSpace=wrap;html=1;" vertex="1" parent="Y7qKBM2O2GGH0q0RzG9P-3">
          <mxGeometry x="250.79999999999995" y="150" width="10" height="20" as="geometry" />
        </mxCell>
        <mxCell id="5QhLUKLZfmG-UPf2fnDZ-45" value="&lt;div style=&quot;text-align: center;&quot;&gt;&lt;font face=&quot;Jetbrains Mono&quot;&gt;&lt;span style=&quot;font-size: 8px;&quot;&gt;n&lt;/span&gt;&lt;/font&gt;&lt;/div&gt;" style="text;whiteSpace=wrap;html=1;" vertex="1" parent="Y7qKBM2O2GGH0q0RzG9P-3">
          <mxGeometry x="318.81" y="157.45000000000005" width="10" height="20" as="geometry" />
        </mxCell>
        <mxCell id="node5" value="&lt;p style=&quot;margin:0px;margin-top:4px;text-align:center;&quot;&gt;&lt;i&gt;&amp;lt;&amp;lt;interface&amp;gt;&amp;gt;&lt;/i&gt;&lt;br&gt;&lt;b&gt;IRuleSetLoaderStrategy&lt;/b&gt;&lt;/p&gt;&lt;hr&gt;&lt;p style=&quot;margin:0 0 0 4px;line-height:1.6;&quot;&gt;+ load(String): List&amp;lt;IRule&amp;gt;&lt;/p&gt;" style="verticalAlign=top;align=left;overflow=fill;fontSize=4;fontFamily=Jetbrains Mono;html=1;rounded=1;shadow=0;comic=0;labelBackgroundColor=none;strokeWidth=1;strokeColor=#6c8ebf;arcSize=10;fontColor=default;fillColor=#dae8fc;" parent="Y7qKBM2O2GGH0q0RzG9P-3" vertex="1">
          <mxGeometry x="600" y="145" width="91.53" height="30" as="geometry" />
        </mxCell>
        <mxCell id="node10" value="&lt;p style=&quot;margin:0px;margin-top:4px;text-align:center;&quot;&gt;&lt;i&gt;&amp;lt;&amp;lt;enumeration&amp;gt;&amp;gt;&lt;/i&gt;&lt;br&gt;&lt;b&gt;ETypeOfOperation&lt;/b&gt;&lt;/p&gt;&lt;hr&gt;&lt;p style=&quot;margin:0 0 0 4px;line-height:1.6;&quot;&gt;+ ADD: &lt;br&gt;+ REMOVE: &lt;br&gt;+ UPDATE: &lt;/p&gt;&lt;hr&gt;&lt;p style=&quot;margin:0 0 0 4px;line-height:1.6;&quot;&gt;+ values(): ETypeOfOperation[]&lt;br&gt;+ valueOf(String): ETypeOfOperation&lt;/p&gt;" style="verticalAlign=top;align=left;overflow=fill;fontSize=4;fontFamily=Jetbrains Mono;html=1;rounded=1;shadow=0;comic=0;labelBackgroundColor=none;strokeWidth=1;strokeColor=#6c8ebf;arcSize=10;fontColor=default;fillColor=#dae8fc;" parent="Y7qKBM2O2GGH0q0RzG9P-3" vertex="1">
          <mxGeometry x="498.47" y="40.00000000000001" width="91.53" height="61.88" as="geometry" />
        </mxCell>
        <mxCell id="node4" value="&lt;p style=&quot;margin:0px;margin-top:4px;text-align:center;&quot;&gt;&lt;i&gt;&amp;lt;&amp;lt;enumeration&amp;gt;&amp;gt;&lt;/i&gt;&lt;br&gt;&lt;b&gt;EProtocol&lt;/b&gt;&lt;/p&gt;&lt;hr&gt;&lt;p style=&quot;margin:0 0 0 4px;line-height:1.6;&quot;&gt;+ UDP: &lt;br&gt;+ TCP: &lt;br&gt;+ ICMP: &lt;/p&gt;&lt;hr&gt;&lt;p style=&quot;margin:0 0 0 4px;line-height:1.6;&quot;&gt;+ valueOf(String): EProtocol&lt;br&gt;+ values(): EProtocol[]&lt;/p&gt;" style="verticalAlign=top;align=left;overflow=fill;fontSize=4;fontFamily=Jetbrains Mono;html=1;rounded=1;shadow=0;comic=0;labelBackgroundColor=none;strokeWidth=1;strokeColor=#6c8ebf;arcSize=10;fontColor=default;fillColor=#dae8fc;" parent="Y7qKBM2O2GGH0q0RzG9P-3" vertex="1">
          <mxGeometry x="498.47" y="110" width="91.53" height="60" as="geometry" />
        </mxCell>
        <mxCell id="OnnQE_iedf080fl_v-75-1" value="&lt;font&gt;it.unibas.softwarefirewall.firewallgui&lt;/font&gt;" style="shape=folder;fontStyle=1;tabWidth=190;tabHeight=30;tabPosition=left;html=1;boundedLbl=1;labelInHeader=1;container=1;collapsible=0;recursiveResize=0;whiteSpace=wrap;rounded=1;shadow=0;fillColor=#d5e8d4;strokeColor=#82b366;fontFamily=Jetbrains Mono;fontSize=6;" parent="1" vertex="1">
          <mxGeometry x="-780" y="-1160" width="764.5" height="349" as="geometry" />
        </mxCell>
        <mxCell id="5QhLUKLZfmG-UPf2fnDZ-11" value="&lt;p style=&quot;margin:0px;margin-top:4px;text-align:center;&quot;&gt;&lt;b&gt;PseudoPacket&lt;/b&gt;&lt;/p&gt;&lt;hr size=&quot;1&quot;/&gt;&lt;p style=&quot;margin:0 0 0 4px;line-height:1.6;&quot;&gt;- ID: String&lt;br/&gt;- payload: String&lt;br/&gt;- header: IHeader&lt;/p&gt;&lt;hr size=&quot;1&quot;/&gt;&lt;p style=&quot;margin:0 0 0 4px;line-height:1.6;&quot;&gt;# canEqual(Object): boolean&lt;br/&gt;+ getPayload(): String&lt;br/&gt;+ equals(Object): boolean&lt;br/&gt;+ toDisplayString(): String&lt;br/&gt;+ toString(): String&lt;br/&gt;+ hashCode(): int&lt;br/&gt;+ getID(): String&lt;br/&gt;+ getHeader(): IHeader&lt;/p&gt;" style="verticalAlign=top;align=left;overflow=fill;fontSize=4;fontFamily=Jetbrains Mono;html=1;rounded=1;shadow=0;comic=0;labelBackgroundColor=none;strokeWidth=1;pointerEvents=0;fontColor=default;fillColor=#dae8fc;gradientColor=none;strokeColor=#6c8ebf;arcSize=10;" vertex="1" parent="OnnQE_iedf080fl_v-75-1">
          <mxGeometry x="610" y="124.8" width="93.88" height="95.2" as="geometry" />
        </mxCell>
        <mxCell id="5QhLUKLZfmG-UPf2fnDZ-2" value="&lt;p style=&quot;margin:0px;margin-top:4px;text-align:center;&quot;&gt;&lt;b&gt;IPRange&lt;/b&gt;&lt;/p&gt;&lt;hr size=&quot;1&quot;/&gt;&lt;p style=&quot;margin:0 0 0 4px;line-height:1.6;&quot;&gt;- network: IPAddress&lt;br/&gt;- log: Logger&lt;/p&gt;&lt;hr size=&quot;1&quot;/&gt;&lt;p style=&quot;margin:0 0 0 4px;line-height:1.6;&quot;&gt;+ equals(Object): boolean&lt;br/&gt;+ hashCode(): int&lt;br/&gt;+ clone(): Object&lt;br/&gt;+ setNetwork(IPAddress): void&lt;br/&gt;+ contains(String): Boolean&lt;br/&gt;+ getNetwork(): IPAddress&lt;br/&gt;+ toString(): String&lt;/p&gt;" style="verticalAlign=top;align=left;overflow=fill;fontSize=4;fontFamily=Jetbrains Mono;html=1;rounded=1;shadow=0;comic=0;labelBackgroundColor=none;strokeWidth=1;pointerEvents=0;fontColor=default;fillColor=#dae8fc;gradientColor=none;strokeColor=#6c8ebf;arcSize=10;" vertex="1" parent="OnnQE_iedf080fl_v-75-1">
          <mxGeometry x="552.47" y="241.13" width="99.69" height="78.87" as="geometry" />
        </mxCell>
        <mxCell id="5QhLUKLZfmG-UPf2fnDZ-3" value="&lt;p style=&quot;margin:0px;margin-top:4px;text-align:center;&quot;&gt;&lt;b&gt;InMemoryFirewallEngine&lt;/b&gt;&lt;/p&gt;&lt;hr size=&quot;1&quot;/&gt;&lt;p style=&quot;margin:0 0 0 4px;line-height:1.6;&quot;&gt;- activeRuleSet: IRuleSet&lt;br/&gt;- clonedRuleSetUnderTest: IRuleSet&lt;br/&gt;- rwLock: ReadWriteLock&lt;br/&gt;- log: Logger&lt;/p&gt;&lt;hr size=&quot;1&quot;/&gt;&lt;p style=&quot;margin:0 0 0 4px;line-height:1.6;&quot;&gt;+ updateClonedRuleSetUnderTest(IRule, ETypeOfOperation, Optional&amp;lt;IRule&amp;gt;): void&lt;br/&gt;+ getActiveRuleSet(): IRuleSet&lt;br/&gt;+ clonedRuleSetUnderTestProcessPacket(IPacket): Boolean&lt;br/&gt;+ updateActiveRuleSet(IRule, ETypeOfOperation, Optional&amp;lt;IRule&amp;gt;): void&lt;br/&gt;+ getClonedRuleSetUnderTestRules(): List&amp;lt;IRule&amp;gt;&lt;br/&gt;+ activeRuleSetProcessPacket(IPacket): Boolean&lt;br/&gt;+ getActiveRuleSetRules(): List&amp;lt;IRule&amp;gt;&lt;br/&gt;- applyUpdate(IRule, ETypeOfOperation, Optional&amp;lt;IRule&amp;gt;, IRuleSet, Boolean): void&lt;br/&gt;+ getClonedRuleSetUnderTest(): IRuleSet&lt;br/&gt;+ activeRuleSetContainsRule(IRule): Boolean&lt;br/&gt;+ clonedRuleSetUnderTestContainsRule(IRule): Boolean&lt;/p&gt;" style="verticalAlign=top;align=left;overflow=fill;fontSize=4;fontFamily=Jetbrains Mono;html=1;rounded=1;shadow=0;comic=0;labelBackgroundColor=none;strokeWidth=1;pointerEvents=0;fontColor=default;fillColor=#dae8fc;gradientColor=none;strokeColor=#6c8ebf;arcSize=10;" vertex="1" parent="OnnQE_iedf080fl_v-75-1">
          <mxGeometry x="20" y="220" width="209.21" height="115.76" as="geometry" />
        </mxCell>
        <mxCell id="5QhLUKLZfmG-UPf2fnDZ-4" value="&lt;p style=&quot;margin:0px;margin-top:4px;text-align:center;&quot;&gt;&lt;i&gt;&amp;lt;&amp;lt;annotation&amp;gt;&amp;gt;&lt;/i&gt;&lt;br/&gt;&lt;b&gt;LogPacket&lt;/b&gt;&lt;/p&gt;&lt;hr size=&quot;1&quot;/&gt;" style="verticalAlign=top;align=left;overflow=fill;fontSize=4;fontFamily=Jetbrains Mono;html=1;rounded=1;shadow=0;comic=0;labelBackgroundColor=none;strokeWidth=1;pointerEvents=0;fontColor=default;fillColor=#dae8fc;gradientColor=none;strokeColor=#6c8ebf;arcSize=10;" vertex="1" parent="OnnQE_iedf080fl_v-75-1">
          <mxGeometry x="20" y="173.91" width="59.01" height="22.13" as="geometry" />
        </mxCell>
        <mxCell id="5QhLUKLZfmG-UPf2fnDZ-5" value="&lt;p style=&quot;margin:0px;margin-top:4px;text-align:center;&quot;&gt;&lt;b&gt;NetworkUtils&lt;/b&gt;&lt;/p&gt;&lt;hr size=&quot;1&quot;/&gt;&lt;p style=&quot;margin:0 0 0 4px;line-height:1.6;&quot;&gt;- log: Logger&lt;/p&gt;&lt;hr size=&quot;1&quot;/&gt;&lt;p style=&quot;margin:0 0 0 4px;line-height:1.6;&quot;&gt;+ getLocalIpAddress(): String&lt;/p&gt;" style="verticalAlign=top;align=left;overflow=fill;fontSize=4;fontFamily=Jetbrains Mono;html=1;rounded=1;shadow=0;comic=0;labelBackgroundColor=none;strokeWidth=1;pointerEvents=0;fontColor=default;fillColor=#dae8fc;gradientColor=none;strokeColor=#6c8ebf;arcSize=10;" vertex="1" parent="OnnQE_iedf080fl_v-75-1">
          <mxGeometry x="20" y="70.55999999999997" width="95.66" height="33.11" as="geometry" />
        </mxCell>
        <mxCell id="5QhLUKLZfmG-UPf2fnDZ-6" value="&lt;p style=&quot;margin:0px;margin-top:4px;text-align:center;&quot;&gt;&lt;b&gt;PacketLogEntry&lt;/b&gt;&lt;/p&gt;&lt;hr size=&quot;1&quot;/&gt;&lt;p style=&quot;margin:0 0 0 4px;line-height:1.6;&quot;&gt;- allowed: Boolean&lt;br/&gt;- packet: IPacket&lt;br/&gt;- timestamp: Long&lt;/p&gt;&lt;hr size=&quot;1&quot;/&gt;&lt;p style=&quot;margin:0 0 0 4px;line-height:1.6;&quot;&gt;+ toString(): String&lt;br/&gt;+ getPacket(): IPacket&lt;br/&gt;+ getAllowed(): Boolean&lt;br/&gt;+ getTimestamp(): Long&lt;/p&gt;" style="verticalAlign=top;align=left;overflow=fill;fontSize=4;fontFamily=Jetbrains Mono;html=1;rounded=1;shadow=0;comic=0;labelBackgroundColor=none;strokeWidth=1;pointerEvents=0;fontColor=default;fillColor=#dae8fc;gradientColor=none;strokeColor=#6c8ebf;arcSize=10;" vertex="1" parent="OnnQE_iedf080fl_v-75-1">
          <mxGeometry x="290" y="241.13" width="81.81" height="69.36" as="geometry" />
        </mxCell>
        <mxCell id="5QhLUKLZfmG-UPf2fnDZ-7" value="&lt;p style=&quot;margin:0px;margin-top:4px;text-align:center;&quot;&gt;&lt;b&gt;PacketLogger&lt;/b&gt;&lt;/p&gt;&lt;hr size=&quot;1&quot;/&gt;&lt;p style=&quot;margin:0 0 0 4px;line-height:1.6;&quot;&gt;- logQueue: Queue&amp;lt;IPacketLogEntry&amp;gt;&lt;br/&gt;- retentionInMillis: Long&lt;br/&gt;- listeners: List&amp;lt;IPacketLoggerListener&amp;gt;&lt;br/&gt;- log: Logger&lt;/p&gt;&lt;hr size=&quot;1&quot;/&gt;&lt;p style=&quot;margin:0 0 0 4px;line-height:1.6;&quot;&gt;+ addPacketLoggerListener(IPacketLoggerListener): void&lt;br/&gt;+ logPacket(IPacket, Boolean): void&lt;br/&gt;+ getSnapshot(): Queue&amp;lt;IPacketLogEntry&amp;gt;&lt;br/&gt;+ cleanupOldEntries(): void&lt;/p&gt;" style="verticalAlign=top;align=left;overflow=fill;fontSize=4;fontFamily=Jetbrains Mono;html=1;rounded=1;shadow=0;comic=0;labelBackgroundColor=none;strokeWidth=1;pointerEvents=0;fontColor=default;fillColor=#dae8fc;gradientColor=none;strokeColor=#6c8ebf;arcSize=10;" vertex="1" parent="OnnQE_iedf080fl_v-75-1">
          <mxGeometry x="380.37" y="241.13" width="109.63" height="73.33" as="geometry" />
        </mxCell>
        <mxCell id="5QhLUKLZfmG-UPf2fnDZ-8" value="&lt;p style=&quot;margin:0px;margin-top:4px;text-align:center;&quot;&gt;&lt;b&gt;PacketLoggerInterceptor&lt;/b&gt;&lt;/p&gt;&lt;hr size=&quot;1&quot;/&gt;&lt;p style=&quot;margin:0 0 0 4px;line-height:1.6;&quot;&gt;- logger: IPacketLogger&lt;/p&gt;&lt;hr size=&quot;1&quot;/&gt;&lt;p style=&quot;margin:0 0 0 4px;line-height:1.6;&quot;&gt;+ invoke(MethodInvocation): Object&lt;/p&gt;" style="verticalAlign=top;align=left;overflow=fill;fontSize=4;fontFamily=Jetbrains Mono;html=1;rounded=1;shadow=0;comic=0;labelBackgroundColor=none;strokeWidth=1;pointerEvents=0;fontColor=default;fillColor=#dae8fc;gradientColor=none;strokeColor=#6c8ebf;arcSize=10;" vertex="1" parent="OnnQE_iedf080fl_v-75-1">
          <mxGeometry x="470" y="182.48" width="114.44" height="37.52" as="geometry" />
        </mxCell>
        <mxCell id="5QhLUKLZfmG-UPf2fnDZ-9" value="&lt;p style=&quot;margin:0px;margin-top:4px;text-align:center;&quot;&gt;&lt;b&gt;PortRange&lt;/b&gt;&lt;/p&gt;&lt;hr size=&quot;1&quot;/&gt;&lt;p style=&quot;margin:0 0 0 4px;line-height:1.6;&quot;&gt;- start: Integer&lt;br/&gt;- log: Logger&lt;br/&gt;- end: Integer&lt;/p&gt;&lt;hr size=&quot;1&quot;/&gt;&lt;p style=&quot;margin:0 0 0 4px;line-height:1.6;&quot;&gt;+ clone(): Object&lt;br/&gt;+ hashCode(): int&lt;br/&gt;+ setStart(Integer): void&lt;br/&gt;+ getEnd(): Integer&lt;br/&gt;+ equals(Object): boolean&lt;br/&gt;+ getStart(): Integer&lt;br/&gt;+ setEnd(Integer): void&lt;br/&gt;+ contains(Integer): Boolean&lt;br/&gt;+ toString(): String&lt;/p&gt;" style="verticalAlign=top;align=left;overflow=fill;fontSize=4;fontFamily=Jetbrains Mono;html=1;rounded=1;shadow=0;comic=0;labelBackgroundColor=none;strokeWidth=1;pointerEvents=0;fontColor=default;fillColor=#dae8fc;gradientColor=none;strokeColor=#6c8ebf;arcSize=10;" vertex="1" parent="OnnQE_iedf080fl_v-75-1">
          <mxGeometry x="659.76" y="241.13" width="92.98" height="94.63" as="geometry" />
        </mxCell>
        <mxCell id="5QhLUKLZfmG-UPf2fnDZ-10" value="&lt;p style=&quot;margin:0px;margin-top:4px;text-align:center;&quot;&gt;&lt;b&gt;PseudoHeader&lt;/b&gt;&lt;/p&gt;&lt;hr size=&quot;1&quot;/&gt;&lt;p style=&quot;margin:0 0 0 4px;line-height:1.6;&quot;&gt;- sourceIP: String&lt;br/&gt;- destinationIP: String&lt;br/&gt;- destinationPort: Integer&lt;br/&gt;- sourcePort: Integer&lt;br/&gt;- protocol: EProtocol&lt;/p&gt;&lt;hr size=&quot;1&quot;/&gt;&lt;p style=&quot;margin:0 0 0 4px;line-height:1.6;&quot;&gt;+ getSourcePort(): Integer&lt;br/&gt;+ equals(Object): boolean&lt;br/&gt;+ toString(): String&lt;br/&gt;# canEqual(Object): boolean&lt;br/&gt;+ getProtocol(): EProtocol&lt;br/&gt;+ getDestinationIP(): String&lt;br/&gt;+ getDestinationPort(): Integer&lt;br/&gt;+ hashCode(): int&lt;br/&gt;+ getSourceIP(): String&lt;/p&gt;" style="verticalAlign=top;align=left;overflow=fill;fontSize=4;fontFamily=Jetbrains Mono;html=1;rounded=1;shadow=0;comic=0;labelBackgroundColor=none;strokeWidth=1;pointerEvents=0;fontColor=default;fillColor=#dae8fc;gradientColor=none;strokeColor=#6c8ebf;arcSize=10;" vertex="1" parent="OnnQE_iedf080fl_v-75-1">
          <mxGeometry x="360" y="103.67000000000002" width="98.79" height="116.33" as="geometry" />
        </mxCell>
        <mxCell id="5QhLUKLZfmG-UPf2fnDZ-13" value="&lt;p style=&quot;margin:0px;margin-top:4px;text-align:center;&quot;&gt;&lt;b&gt;RuleDeserializer&lt;/b&gt;&lt;/p&gt;&lt;hr size=&quot;1&quot;/&gt;&lt;p style=&quot;margin:0 0 0 4px;line-height:1.6;&quot;&gt;+ deserialize(JsonElement, Type, JsonDeserializationContext): Rule&lt;br/&gt;- parsePortRange(String): PortRange&lt;/p&gt;" style="verticalAlign=top;align=left;overflow=fill;fontSize=4;fontFamily=Jetbrains Mono;html=1;rounded=1;shadow=0;comic=0;labelBackgroundColor=none;strokeWidth=1;pointerEvents=0;fontColor=default;fillColor=#dae8fc;gradientColor=none;strokeColor=#6c8ebf;arcSize=10;" vertex="1" parent="OnnQE_iedf080fl_v-75-1">
          <mxGeometry x="20" y="119.59" width="168.53" height="33.09" as="geometry" />
        </mxCell>
        <mxCell id="5QhLUKLZfmG-UPf2fnDZ-14" value="&lt;p style=&quot;margin:0px;margin-top:4px;text-align:center;&quot;&gt;&lt;b&gt;RuleSet&lt;/b&gt;&lt;/p&gt;&lt;hr size=&quot;1&quot;/&gt;&lt;p style=&quot;margin:0 0 0 4px;line-height:1.6;&quot;&gt;- rules: List&amp;lt;IRule&amp;gt;&lt;br/&gt;- log: Logger&lt;br/&gt;- loader: IRuleSetLoaderStrategy&lt;/p&gt;&lt;hr size=&quot;1&quot;/&gt;&lt;p style=&quot;margin:0 0 0 4px;line-height:1.6;&quot;&gt;+ loadRuleSetFromFile(): void&lt;br/&gt;+ getLoader(): IRuleSetLoaderStrategy&lt;br/&gt;+ setRules(List&amp;lt;IRule&amp;gt;): void&lt;br/&gt;+ equals(Object): boolean&lt;br/&gt;+ toString(): String&lt;br/&gt;+ getRules(): List&amp;lt;IRule&amp;gt;&lt;br/&gt;+ clone(): Object&lt;br/&gt;+ matches(IPacket): Boolean&lt;br/&gt;+ removeRule(IRule): void&lt;br/&gt;+ hashCode(): int&lt;br/&gt;+ setLoader(IRuleSetLoaderStrategy): void&lt;br/&gt;# canEqual(Object): boolean&lt;br/&gt;+ addRule(IRule): void&lt;/p&gt;" style="verticalAlign=top;align=left;overflow=fill;fontSize=4;fontFamily=Jetbrains Mono;html=1;rounded=1;shadow=0;comic=0;labelBackgroundColor=none;strokeWidth=1;pointerEvents=0;fontColor=default;fillColor=#dae8fc;gradientColor=none;strokeColor=#6c8ebf;arcSize=10;" vertex="1" parent="OnnQE_iedf080fl_v-75-1">
          <mxGeometry x="469.06" y="35.00000000000001" width="131.87" height="130.26" as="geometry" />
        </mxCell>
        <mxCell id="5QhLUKLZfmG-UPf2fnDZ-15" value="&lt;p style=&quot;margin:0px;margin-top:4px;text-align:center;&quot;&gt;&lt;b&gt;RuleSetLoaderJsonStrategy&lt;/b&gt;&lt;/p&gt;&lt;hr size=&quot;1&quot;/&gt;&lt;p style=&quot;margin:0 0 0 4px;line-height:1.6;&quot;&gt;- gson: Gson&lt;/p&gt;&lt;hr size=&quot;1&quot;/&gt;&lt;p style=&quot;margin:0 0 0 4px;line-height:1.6;&quot;&gt;+ load(String): List&amp;lt;IRule&amp;gt;&lt;/p&gt;" style="verticalAlign=top;align=left;overflow=fill;fontSize=4;fontFamily=Jetbrains Mono;html=1;rounded=1;shadow=0;comic=0;labelBackgroundColor=none;strokeWidth=1;pointerEvents=0;fontColor=default;fillColor=#dae8fc;gradientColor=none;strokeColor=#6c8ebf;arcSize=10;" vertex="1" parent="OnnQE_iedf080fl_v-75-1">
          <mxGeometry x="632.49" y="83.50999999999999" width="120.25" height="33.24" as="geometry" />
        </mxCell>
        <mxCell id="5QhLUKLZfmG-UPf2fnDZ-16" value="&lt;p style=&quot;margin:0px;margin-top:4px;text-align:center;&quot;&gt;&lt;b&gt;RuleSetLoaderXMLStrategy&lt;/b&gt;&lt;/p&gt;&lt;hr size=&quot;1&quot;/&gt;&lt;p style=&quot;margin:0 0 0 4px;line-height:1.6;&quot;&gt;+ load(String): List&amp;lt;IRule&amp;gt;&lt;/p&gt;" style="verticalAlign=top;align=left;overflow=fill;fontSize=4;fontFamily=Jetbrains Mono;html=1;rounded=1;shadow=0;comic=0;labelBackgroundColor=none;strokeWidth=1;pointerEvents=0;fontColor=default;fillColor=#dae8fc;gradientColor=none;strokeColor=#6c8ebf;arcSize=10;" vertex="1" parent="OnnQE_iedf080fl_v-75-1">
          <mxGeometry x="633.38" y="48.370000000000005" width="119.36" height="19.74" as="geometry" />
        </mxCell>
        <UserObject label="&lt;font style=&quot;line-height: 100%; font-size: 8px;&quot; face=&quot;Jetbrains Mono&quot;&gt;1&lt;/font&gt;" placeholders="1" name="Variable" id="5QhLUKLZfmG-UPf2fnDZ-25">
          <mxCell style="text;html=1;strokeColor=none;fillColor=none;align=center;verticalAlign=middle;whiteSpace=wrap;overflow=hidden;" vertex="1" parent="OnnQE_iedf080fl_v-75-1">
            <mxGeometry x="240" y="259.64" width="50" height="20" as="geometry" />
          </mxCell>
        </UserObject>
        <mxCell id="5QhLUKLZfmG-UPf2fnDZ-42" value="&lt;div style=&quot;text-align: center;&quot;&gt;&lt;span style=&quot;background-color: transparent; color: light-dark(rgb(0, 0, 0), rgb(255, 255, 255)); font-size: 8px;&quot;&gt;&lt;font face=&quot;Jetbrains Mono&quot;&gt;1&lt;/font&gt;&lt;/span&gt;&lt;/div&gt;" style="text;whiteSpace=wrap;html=1;" vertex="1" parent="OnnQE_iedf080fl_v-75-1">
          <mxGeometry x="421.64" y="310.49" width="10" height="20" as="geometry" />
        </mxCell>
        <mxCell id="5QhLUKLZfmG-UPf2fnDZ-48" value="&lt;div style=&quot;text-align: center;&quot;&gt;&lt;span style=&quot;background-color: transparent; color: light-dark(rgb(0, 0, 0), rgb(255, 255, 255)); font-size: 8px;&quot;&gt;&lt;font face=&quot;Jetbrains Mono&quot;&gt;1&lt;/font&gt;&lt;/span&gt;&lt;/div&gt;" style="text;whiteSpace=wrap;html=1;" vertex="1" parent="OnnQE_iedf080fl_v-75-1">
          <mxGeometry x="530" y="221.13" width="10" height="20" as="geometry" />
        </mxCell>
        <mxCell id="5QhLUKLZfmG-UPf2fnDZ-56" value="&lt;div style=&quot;text-align: center;&quot;&gt;&lt;font face=&quot;Jetbrains Mono&quot;&gt;&lt;span style=&quot;font-size: 8px;&quot;&gt;1&lt;/span&gt;&lt;/font&gt;&lt;/div&gt;" style="text;whiteSpace=wrap;html=1;" vertex="1" parent="OnnQE_iedf080fl_v-75-1">
          <mxGeometry x="642.16" y="210" width="10" height="20" as="geometry" />
        </mxCell>
        <mxCell id="5QhLUKLZfmG-UPf2fnDZ-12" value="&lt;p style=&quot;margin:0px;margin-top:4px;text-align:center;&quot;&gt;&lt;b&gt;Rule&lt;/b&gt;&lt;/p&gt;&lt;hr size=&quot;1&quot;/&gt;&lt;p style=&quot;margin:0 0 0 4px;line-height:1.6;&quot;&gt;- sourceIPRange: IRange&amp;lt;String&amp;gt;&lt;br/&gt;- log: Logger&lt;br/&gt;- ID: String&lt;br/&gt;- sourcePortRange: IRange&amp;lt;Integer&amp;gt;&lt;br/&gt;- protocol: EProtocol&lt;br/&gt;- direction: EDirection&lt;br/&gt;- description: String&lt;br/&gt;- destinationIPRange: IRange&amp;lt;String&amp;gt;&lt;br/&gt;- destinationPortRange: IRange&amp;lt;Integer&amp;gt;&lt;/p&gt;&lt;hr size=&quot;1&quot;/&gt;&lt;p style=&quot;margin:0 0 0 4px;line-height:1.6;&quot;&gt;+ clone(): Object&lt;br/&gt;+ setDirection(EDirection): void&lt;br/&gt;+ getDirection(): EDirection&lt;br/&gt;+ setSourceIPRange(IRange&amp;lt;String&amp;gt;): void&lt;br/&gt;+ setDestinationPortRange(IRange&amp;lt;Integer&amp;gt;): void&lt;br/&gt;+ getDestinationIPRange(): IRange&amp;lt;String&amp;gt;&lt;br/&gt;+ setDescription(String): void&lt;br/&gt;+ setProtocol(EProtocol): void&lt;br/&gt;+ getDestinationPortRange(): IRange&amp;lt;Integer&amp;gt;&lt;br/&gt;- evaluateMatch(IHeader): Boolean&lt;br/&gt;+ getSourcePortRange(): IRange&amp;lt;Integer&amp;gt;&lt;br/&gt;+ hashCode(): int&lt;br/&gt;+ getProtocol(): EProtocol&lt;br/&gt;+ setDestinationIPRange(IRange&amp;lt;String&amp;gt;): void&lt;br/&gt;+ setSourcePortRange(IRange&amp;lt;Integer&amp;gt;): void&lt;br/&gt;+ getID(): String&lt;br/&gt;+ getSourceIPRange(): IRange&amp;lt;String&amp;gt;&lt;br/&gt;+ setID(String): void&lt;br/&gt;+ equals(Object): boolean&lt;br/&gt;+ toString(): String&lt;br/&gt;+ matches(IPacket): Boolean&lt;br/&gt;+ getDescription(): String&lt;/p&gt;" style="verticalAlign=top;align=left;overflow=fill;fontSize=4;fontFamily=Jetbrains Mono;html=1;rounded=1;shadow=0;comic=0;labelBackgroundColor=none;strokeWidth=1;pointerEvents=0;fontColor=default;fillColor=#dae8fc;gradientColor=none;strokeColor=#6c8ebf;arcSize=10;" vertex="1" parent="OnnQE_iedf080fl_v-75-1">
          <mxGeometry x="226.22" y="31.13" width="123.78" height="210" as="geometry" />
        </mxCell>
        <mxCell id="OnnQE_iedf080fl_v-75-17" value="&lt;font&gt;it.unibas.softwarefirewall.firewallcore&lt;/font&gt;" style="shape=folder;fontStyle=1;tabWidth=210;tabHeight=30;tabPosition=left;html=1;boundedLbl=1;labelInHeader=1;container=1;collapsible=0;recursiveResize=0;whiteSpace=wrap;rounded=1;shadow=0;fillColor=#fff2cc;strokeColor=#d6b656;fontFamily=Jetbrains Mono;fontSize=6;" parent="1" vertex="1">
          <mxGeometry x="-780" y="-520" width="500" height="480" as="geometry" />
        </mxCell>
        <mxCell id="OnnQE_iedf080fl_v-75-18" value="&lt;font&gt;it.unibas.softwarefirewall.clientsimulator&lt;/font&gt;" style="shape=folder;fontStyle=1;tabWidth=190;tabHeight=30;tabPosition=left;html=1;boundedLbl=1;labelInHeader=1;container=1;collapsible=0;recursiveResize=0;whiteSpace=wrap;rounded=1;shadow=0;fillColor=#f8cecc;strokeColor=#b85450;fontFamily=Jetbrains Mono;fontSize=6;" parent="1" vertex="1">
          <mxGeometry x="-250" y="-520" width="210" height="480" as="geometry" />
        </mxCell>
        <mxCell id="5QhLUKLZfmG-UPf2fnDZ-19" value="" style="endArrow=block;dashed=1;endFill=0;endSize=12;html=1;rounded=0;entryX=0.5;entryY=0;entryDx=0;entryDy=0;exitX=0.5;exitY=1;exitDx=0;exitDy=0;edgeStyle=orthogonalEdgeStyle;" edge="1" parent="1" source="5QhLUKLZfmG-UPf2fnDZ-3" target="node1">
          <mxGeometry width="160" relative="1" as="geometry">
            <mxPoint x="-480" y="-770" as="sourcePoint" />
            <mxPoint x="-320" y="-770" as="targetPoint" />
            <Array as="points">
              <mxPoint x="-655" y="-820" />
              <mxPoint x="-580" y="-820" />
              <mxPoint x="-580" y="-780" />
              <mxPoint x="-659" y="-780" />
            </Array>
          </mxGeometry>
        </mxCell>
        <mxCell id="5QhLUKLZfmG-UPf2fnDZ-23" value="" style="endArrow=diamondThin;endFill=0;endSize=24;html=1;rounded=0;entryX=1;entryY=0.5;entryDx=0;entryDy=0;exitX=0.5;exitY=0;exitDx=0;exitDy=0;" edge="1" parent="1" source="node7" target="5QhLUKLZfmG-UPf2fnDZ-3">
          <mxGeometry width="160" relative="1" as="geometry">
            <mxPoint x="-570" y="-790" as="sourcePoint" />
            <mxPoint x="-450" y="-790" as="targetPoint" />
            <Array as="points">
              <mxPoint x="-495" y="-882" />
            </Array>
          </mxGeometry>
        </mxCell>
        <mxCell id="5QhLUKLZfmG-UPf2fnDZ-36" value="" style="endArrow=block;dashed=1;endFill=0;endSize=12;html=1;rounded=0;entryX=0.5;entryY=0;entryDx=0;entryDy=0;exitX=0.431;exitY=0.996;exitDx=0;exitDy=0;exitPerimeter=0;" edge="1" parent="1" source="5QhLUKLZfmG-UPf2fnDZ-9" target="node13">
          <mxGeometry width="160" relative="1" as="geometry">
            <mxPoint x="-290" y="-880" as="sourcePoint" />
            <mxPoint x="-130" y="-880" as="targetPoint" />
            <Array as="points">
              <mxPoint x="-80" y="-790" />
              <mxPoint x="-135" y="-790" />
            </Array>
          </mxGeometry>
        </mxCell>
        <mxCell id="5QhLUKLZfmG-UPf2fnDZ-37" value="" style="endArrow=block;dashed=1;endFill=0;endSize=12;html=1;rounded=0;entryX=0.5;entryY=0;entryDx=0;entryDy=0;exitX=0.474;exitY=0.999;exitDx=0;exitDy=0;exitPerimeter=0;" edge="1" parent="1" source="5QhLUKLZfmG-UPf2fnDZ-2" target="node13">
          <mxGeometry width="160" relative="1" as="geometry">
            <mxPoint x="-135" y="-800" as="sourcePoint" />
            <mxPoint x="-190" y="-735" as="targetPoint" />
            <Array as="points">
              <mxPoint x="-180" y="-790" />
              <mxPoint x="-135" y="-790" />
            </Array>
          </mxGeometry>
        </mxCell>
        <mxCell id="5QhLUKLZfmG-UPf2fnDZ-38" value="" style="endArrow=block;dashed=1;endFill=0;endSize=12;html=1;rounded=0;entryX=0.5;entryY=0;entryDx=0;entryDy=0;exitX=0.5;exitY=1;exitDx=0;exitDy=0;" edge="1" parent="1" source="5QhLUKLZfmG-UPf2fnDZ-6" target="node11">
          <mxGeometry width="160" relative="1" as="geometry">
            <mxPoint x="-470" y="-810" as="sourcePoint" />
            <mxPoint x="-310" y="-810" as="targetPoint" />
            <Array as="points">
              <mxPoint x="-449" y="-780" />
              <mxPoint x="-450" y="-650" />
              <mxPoint x="-572" y="-650" />
            </Array>
          </mxGeometry>
        </mxCell>
        <mxCell id="5QhLUKLZfmG-UPf2fnDZ-40" value="" style="endArrow=block;dashed=1;endFill=0;endSize=12;html=1;rounded=0;exitX=0.5;exitY=1;exitDx=0;exitDy=0;entryX=0.5;entryY=0;entryDx=0;entryDy=0;" edge="1" parent="1" source="5QhLUKLZfmG-UPf2fnDZ-7" target="node2">
          <mxGeometry width="160" relative="1" as="geometry">
            <mxPoint x="-380" y="-760" as="sourcePoint" />
            <mxPoint x="-220" y="-760" as="targetPoint" />
            <Array as="points">
              <mxPoint x="-345" y="-800" />
              <mxPoint x="-440" y="-800" />
              <mxPoint x="-440" y="-660" />
              <mxPoint x="-610" y="-660" />
              <mxPoint x="-610" y="-640" />
            </Array>
          </mxGeometry>
        </mxCell>
        <mxCell id="5QhLUKLZfmG-UPf2fnDZ-41" value="" style="endArrow=diamondThin;endFill=0;endSize=24;html=1;rounded=0;exitX=0.5;exitY=1;exitDx=0;exitDy=0;entryX=0.5;entryY=0;entryDx=0;entryDy=0;" edge="1" parent="1" source="5QhLUKLZfmG-UPf2fnDZ-7" target="node11">
          <mxGeometry width="160" relative="1" as="geometry">
            <mxPoint x="-630" y="-770" as="sourcePoint" />
            <mxPoint x="-470" y="-770" as="targetPoint" />
            <Array as="points">
              <mxPoint x="-345" y="-830" />
              <mxPoint x="-440" y="-830" />
              <mxPoint x="-440" y="-640" />
              <mxPoint x="-530" y="-640" />
            </Array>
          </mxGeometry>
        </mxCell>
        <mxCell id="5QhLUKLZfmG-UPf2fnDZ-44" value="" style="endArrow=diamondThin;endFill=0;endSize=24;html=1;rounded=0;exitX=0.5;exitY=1;exitDx=0;exitDy=0;entryX=0.5;entryY=0;entryDx=0;entryDy=0;" edge="1" parent="1" source="5QhLUKLZfmG-UPf2fnDZ-7" target="node6">
          <mxGeometry width="160" relative="1" as="geometry">
            <mxPoint x="-343" y="-840" as="sourcePoint" />
            <mxPoint x="-570" y="-617" as="targetPoint" />
            <Array as="points">
              <mxPoint x="-345" y="-830" />
              <mxPoint x="-390" y="-830" />
              <mxPoint x="-440" y="-830" />
              <mxPoint x="-440" y="-634" />
              <mxPoint x="-460" y="-634" />
            </Array>
          </mxGeometry>
        </mxCell>
        <mxCell id="5QhLUKLZfmG-UPf2fnDZ-46" value="" style="endArrow=diamondThin;endFill=0;endSize=24;html=1;rounded=0;exitX=0.48;exitY=0.956;exitDx=0;exitDy=0;entryX=0.861;entryY=0.013;entryDx=0;entryDy=0;exitPerimeter=0;entryPerimeter=0;" edge="1" parent="1" source="5QhLUKLZfmG-UPf2fnDZ-8" target="node2">
          <mxGeometry width="160" relative="1" as="geometry">
            <mxPoint x="-110" y="-800" as="sourcePoint" />
            <mxPoint x="-260" y="-577" as="targetPoint" />
            <Array as="points">
              <mxPoint x="-253" y="-790" />
              <mxPoint x="-550" y="-790" />
              <mxPoint x="-550" y="-670" />
            </Array>
          </mxGeometry>
        </mxCell>
        <mxCell id="5QhLUKLZfmG-UPf2fnDZ-49" value="" style="endArrow=block;dashed=1;endFill=0;endSize=12;html=1;rounded=0;exitX=0.5;exitY=1;exitDx=0;exitDy=0;entryX=0.5;entryY=0;entryDx=0;entryDy=0;" edge="1" parent="1" source="5QhLUKLZfmG-UPf2fnDZ-10" target="node3">
          <mxGeometry width="160" relative="1" as="geometry">
            <mxPoint x="-500" y="-800" as="sourcePoint" />
            <mxPoint x="-340" y="-800" as="targetPoint" />
            <Array as="points">
              <mxPoint x="-370" y="-930" />
              <mxPoint x="-270" y="-930" />
              <mxPoint x="-270" y="-780" />
              <mxPoint x="-300" y="-780" />
            </Array>
          </mxGeometry>
        </mxCell>
        <mxCell id="5QhLUKLZfmG-UPf2fnDZ-50" value="" style="endArrow=block;dashed=1;endFill=0;endSize=12;html=1;rounded=0;exitX=0.5;exitY=1;exitDx=0;exitDy=0;entryX=0.5;entryY=1;entryDx=0;entryDy=0;" edge="1" parent="1" source="5QhLUKLZfmG-UPf2fnDZ-11" target="node0">
          <mxGeometry width="160" relative="1" as="geometry">
            <mxPoint x="-500" y="-750" as="sourcePoint" />
            <mxPoint x="-340" y="-750" as="targetPoint" />
            <Array as="points">
              <mxPoint x="-123" y="-930" />
              <mxPoint x="-20" y="-930" />
              <mxPoint x="-20" y="-550" />
              <mxPoint x="-396" y="-550" />
            </Array>
          </mxGeometry>
        </mxCell>
        <mxCell id="5QhLUKLZfmG-UPf2fnDZ-52" value="" style="endArrow=diamondThin;endFill=1;endSize=24;html=1;rounded=0;exitX=0.5;exitY=1;exitDx=0;exitDy=0;entryX=1;entryY=0.5;entryDx=0;entryDy=0;" edge="1" parent="1" source="5QhLUKLZfmG-UPf2fnDZ-11" target="node3">
          <mxGeometry width="160" relative="1" as="geometry">
            <mxPoint x="-500" y="-750" as="sourcePoint" />
            <mxPoint x="-340" y="-750" as="targetPoint" />
            <Array as="points">
              <mxPoint x="-123" y="-800" />
              <mxPoint x="-40" y="-800" />
              <mxPoint x="-40" y="-570" />
              <mxPoint x="-230" y="-570" />
            </Array>
          </mxGeometry>
        </mxCell>
        <mxCell id="5QhLUKLZfmG-UPf2fnDZ-57" value="" style="endArrow=block;dashed=1;endFill=0;endSize=12;html=1;rounded=0;entryX=0.5;entryY=0;entryDx=0;entryDy=0;exitX=0;exitY=0;exitDx=0;exitDy=0;" edge="1" parent="1" source="5QhLUKLZfmG-UPf2fnDZ-6" target="node8">
          <mxGeometry width="160" relative="1" as="geometry">
            <mxPoint x="-480" y="-860" as="sourcePoint" />
            <mxPoint x="-320" y="-860" as="targetPoint" />
            <Array as="points">
              <mxPoint x="-490" y="-780" />
              <mxPoint x="-370" y="-780" />
            </Array>
          </mxGeometry>
        </mxCell>
        <mxCell id="5QhLUKLZfmG-UPf2fnDZ-58" value="" style="endArrow=block;dashed=1;endFill=0;endSize=12;html=1;rounded=0;exitX=0.5;exitY=1;exitDx=0;exitDy=0;entryX=0.5;entryY=0;entryDx=0;entryDy=0;" edge="1" parent="1" source="5QhLUKLZfmG-UPf2fnDZ-14" target="node7">
          <mxGeometry width="160" relative="1" as="geometry">
            <mxPoint x="-245" y="-990" as="sourcePoint" />
            <mxPoint x="-340" y="-880" as="targetPoint" />
            <Array as="points">
              <mxPoint x="-245" y="-980" />
              <mxPoint x="-180" y="-980" />
              <mxPoint x="-180" y="-930" />
              <mxPoint x="-240" y="-930" />
              <mxPoint x="-240" y="-800" />
              <mxPoint x="-330" y="-800" />
              <mxPoint x="-410" y="-770" />
            </Array>
          </mxGeometry>
        </mxCell>
        <mxCell id="5QhLUKLZfmG-UPf2fnDZ-59" value="" style="endArrow=block;dashed=1;endFill=0;endSize=12;html=1;rounded=0;exitX=0.5;exitY=1;exitDx=0;exitDy=0;entryX=1;entryY=0.5;entryDx=0;entryDy=0;" edge="1" parent="1" source="5QhLUKLZfmG-UPf2fnDZ-15" target="node5">
          <mxGeometry width="160" relative="1" as="geometry">
            <mxPoint x="-460" y="-870" as="sourcePoint" />
            <mxPoint x="-300" y="-870" as="targetPoint" />
            <Array as="points">
              <mxPoint x="-40" y="-1030" />
              <mxPoint x="-40" y="-930" />
              <mxPoint x="-120" y="-930" />
              <mxPoint x="-120" y="-780" />
              <mxPoint x="-70" y="-780" />
              <mxPoint x="-70" y="-700" />
            </Array>
          </mxGeometry>
        </mxCell>
      </root>
    </mxGraphModel>
  </diagram>
</mxfile>
